 <svg  version="1.0" xmlns="http://www.w3.org/2000/svg"  width="300.000000pt" height="77.000000pt" viewBox="0 0 300.000000 77.000000"  preserveAspectRatio="xMidYMid meet">  <g transform="translate(0.000000,77.000000) scale(0.100000,-0.100000)" fill="#d06767" stroke="none"> <path d="M253 608 l-53 -30 0 -124 0 -124 56 25 c31 14 58 25 60 25 2 0 4 58 4 130 0 72 -3 130 -7 129 -5 0 -32 -14 -60 -31z"/> <path d="M830 390 l0 -160 25 0 25 0 0 160 0 160 -25 0 -25 0 0 -160z"/> <path d="M982 540 c-33 -14 -54 -70 -41 -108 8 -24 23 -36 74 -58 74 -31 91 -57 55 -86 -27 -22 -40 -22 -87 -3 -44 19 -40 19 -53 -5 -9 -16 -6 -22 21 -36 42 -21 111 -21 144 0 32 21 48 60 40 97 -8 35 -29 54 -90 76 -38 14 -51 24 -53 42 -2 13 2 28 10 32 17 11 69 11 87 0 10 -7 19 -4 28 7 18 25 16 29 -18 41 -38 13 -85 13 -117 1z"/> <path d="M1249 527 c-102 -68 -106 -208 -9 -274 45 -31 138 -32 186 -3 102 64 91 231 -19 284 -51 23 -117 21 -158 -7z m148 -47 c64 -39 64 -143 -1 -185 -53 -35 -140 -14 -164 41 -23 48 -15 93 22 130 40 40 92 46 143 14z"/> <path d="M1527 544 c-4 -4 -7 -16 -7 -26 0 -15 8 -18 55 -18 l55 0 0 -135 0 -135 25 0 25 0 0 135 0 135 56 0 c52 0 55 1 52 23 -3 21 -7 22 -129 25 -69 1 -128 -1 -132 -4z"/> <path d="M1854 537 c-2 -7 -3 -78 -2 -157 3 -142 4 -145 26 -148 21 -3 22 0 22 57 0 60 1 61 28 61 21 0 37 -13 75 -60 39 -49 53 -60 77 -60 33 0 38 11 15 30 -9 7 -30 30 -46 52 l-31 38 31 29 c57 53 37 140 -37 161 -54 15 -151 13 -158 -3z m160 -53 c19 -18 21 -55 4 -72 -7 -7 -36 -12 -65 -12 l-53 0 0 43 c0 24 3 47 7 50 13 14 92 7 107 -9z"/> <path d="M2250 539 c-59 -24 -100 -85 -100 -149 0 -91 74 -162 170 -162 85 0 153 56 166 137 18 122 -116 221 -236 174z m130 -56 c46 -31 63 -76 49 -128 -14 -50 -51 -75 -111 -75 -44 0 -54 4 -85 35 -33 33 -35 39 -30 82 7 64 49 103 110 103 24 0 54 -8 67 -17z"/> <path d="M2560 391 l0 -161 25 0 25 0 0 111 c0 131 -8 132 117 -13 46 -54 91 -98 99 -98 12 0 14 27 14 161 l0 160 -22 -3 c-22 -3 -23 -9 -28 -107 l-5 -103 -89 101 c-48 56 -92 101 -96 101 -5 0 -15 3 -24 6 -14 5 -16 -12 -16 -155z"/> <path d="M550 325 c0 -113 3 -205 8 -204 4 0 36 17 72 38 l65 37 3 131 3 132 -64 35 c-35 20 -69 36 -75 36 -9 0 -12 -57 -12 -205z"/> <path d="M443 418 l-73 -30 0 -79 0 -79 -80 40 c-44 22 -82 40 -85 40 -3 0 -5 -24 -5 -54 l0 -55 125 -71 124 -71 46 26 45 27 0 169 c0 129 -3 169 -12 168 -7 0 -46 -14 -85 -31z"/> </g> </svg> 